<?xml version="1.0" standalone="no"?>
<!DOCTYPE svg PUBLIC "-//W3C//DTD SVG 20010904//EN"
 "http://www.w3.org/TR/2001/REC-SVG-20010904/DTD/svg10.dtd">
<svg version="1.0" xmlns="http://www.w3.org/2000/svg"
 width="225.000000pt" height="225.000000pt" viewBox="0 0 225.000000 225.000000"
 preserveAspectRatio="xMidYMid meet">
<metadata>
Created by potrace 1.14, written by Peter Selinger 2001-2017
</metadata>
<g transform="translate(0.000000,225.000000) scale(0.100000,-0.100000)"
fill="#000000" stroke="none">
<path d="M932 1660 c-217 -23 -397 -71 -557 -150 -453 -223 -423 -596 65 -801
107 -45 214 -75 357 -100 182 -32 474 -32 656 0 283 49 498 142 627 271 116
116 147 250 86 375 -89 182 -352 324 -711 385 -137 24 -396 33 -523 20z m214
-132 c-9 -43 -26 -129 -26 -132 0 -2 47 -5 105 -8 113 -4 144 -16 175 -71 13
-23 12 -40 -14 -174 -16 -81 -31 -154 -34 -160 -3 -9 -26 -13 -68 -13 -35 0
-64 2 -64 4 0 2 11 58 25 126 40 194 37 200 -79 200 l-64 0 -10 -47 c-6 -27
-21 -101 -33 -165 l-23 -118 -63 0 c-42 0 -63 4 -63 12 0 10 91 483 105 546 5
20 11 22 70 22 63 0 65 -1 61 -22z m-296 -164 c82 -48 105 -155 56 -259 -50
-105 -108 -135 -265 -135 l-109 0 -12 -72 c-18 -115 -13 -108 -86 -108 -57 0
-65 2 -60 18 2 9 28 144 58 300 l53 284 165 -4 c145 -3 169 -6 200 -24z m1000
0 c54 -31 80 -77 80 -142 0 -77 -17 -126 -63 -178 -55 -63 -88 -74 -219 -74
-80 0 -110 -3 -114 -13 -2 -7 -10 -47 -17 -88 l-13 -74 -68 -3 c-61 -3 -67 -1
-62 15 3 10 28 140 56 288 28 149 53 276 55 283 4 11 39 13 168 10 142 -3 166
-6 197 -24z"/>
<path d="M596 1288 c-2 -7 -12 -53 -21 -103 -9 -49 -18 -98 -21 -107 -5 -16 3
-18 73 -18 104 0 136 19 157 91 9 29 16 58 16 65 0 29 -25 64 -53 74 -43 14
-147 13 -151 -2z"/>
<path d="M1595 1278 c-3 -13 -13 -67 -24 -121 l-18 -99 89 4 c84 3 91 5 114
31 30 35 48 100 39 144 -8 44 -50 63 -134 63 -55 0 -61 -2 -66 -22z"/>
</g>
</svg>
